<svg xmlns="http://www.w3.org/2000/svg" viewBox="0 0 820 620" role="img" aria-labelledby="title desc">
  <title id="title">Tadami interface mockup</title>
  <desc id="desc">Generated Tadami Aurora interface with cards for anime, manga and ranobe.</desc>
  <defs>
    <linearGradient id="bg" x1="0" y1="0" x2="820" y2="620" gradientUnits="userSpaceOnUse"><stop stop-color="#0c1b2c"/><stop offset="1" stop-color="#060a12"/></linearGradient>
    <linearGradient id="accent" x1="180" y1="90" x2="660" y2="520" gradientUnits="userSpaceOnUse"><stop stop-color="#7c5cff"/><stop offset=".52" stop-color="#18a7ff"/><stop offset="1" stop-color="#68e0cf"/></linearGradient>
    <filter id="blur"><feGaussianBlur stdDeviation="36"/></filter>
    <filter id="shadow" x="-20%" y="-20%" width="140%" height="140%"><feDropShadow dx="0" dy="26" stdDeviation="28" flood-color="#000" flood-opacity=".34"/></filter>
  </defs>
  <rect width="820" height="620" rx="42" fill="url(#bg)"/>
  <circle cx="164" cy="112" r="156" fill="#18a7ff" opacity=".28" filter="url(#blur)"/>
  <circle cx="690" cy="102" r="180" fill="#6d5cf6" opacity=".22" filter="url(#blur)"/>
  <circle cx="556" cy="550" r="190" fill="#68e0cf" opacity=".16" filter="url(#blur)"/>

  <g filter="url(#shadow)">
    <rect x="72" y="78" width="676" height="464" rx="34" fill="rgba(255,255,255,.07)" stroke="rgba(255,255,255,.13)"/>
    <rect x="100" y="110" width="620" height="58" rx="24" fill="rgba(255,255,255,.08)"/>
    <circle cx="139" cy="139" r="18" fill="url(#accent)"/>
    <rect x="173" y="127" width="132" height="13" rx="6" fill="#fff" opacity=".9"/>
    <rect x="173" y="148" width="88" height="9" rx="5" fill="#d5e2f0" opacity=".48"/>
    <rect x="562" y="124" width="50" height="30" rx="15" fill="#18a7ff" opacity=".26"/>
    <rect x="625" y="124" width="50" height="30" rx="15" fill="#fff" opacity=".1"/>

    <g transform="translate(100 205)">
      <rect width="188" height="240" rx="28" fill="rgba(255,255,255,.08)" stroke="rgba(255,255,255,.12)"/>
      <rect x="24" y="28" width="140" height="92" rx="22" fill="url(#accent)" opacity=".92"/>
      <path d="M84 55v38l31-19-31-19Z" fill="#07111d" opacity=".86"/>
      <rect x="24" y="150" width="104" height="14" rx="7" fill="#fff" opacity=".9"/>
      <rect x="24" y="176" width="130" height="10" rx="5" fill="#d5e2f0" opacity=".48"/>
      <rect x="24" y="200" width="82" height="24" rx="12" fill="#18a7ff" opacity=".32"/>
    </g>
    <g transform="translate(316 205)">
      <rect width="188" height="240" rx="28" fill="rgba(255,255,255,.08)" stroke="rgba(255,255,255,.12)"/>
      <rect x="24" y="28" width="140" height="92" rx="22" fill="#fff" opacity=".1"/>
      <path d="M60 50h70a8 8 0 0 1 8 8v53a8 8 0 0 1-8 8H60a8 8 0 0 1-8-8V58a8 8 0 0 1 8-8Zm5 14v41h60V64H65Z" fill="#18a7ff"/>
      <rect x="24" y="150" width="116" height="14" rx="7" fill="#fff" opacity=".9"/>
      <rect x="24" y="176" width="130" height="10" rx="5" fill="#d5e2f0" opacity=".48"/>
      <rect x="24" y="200" width="98" height="24" rx="12" fill="#68e0cf" opacity=".24"/>
    </g>
    <g transform="translate(532 205)">
      <rect width="188" height="240" rx="28" fill="rgba(255,255,255,.08)" stroke="rgba(255,255,255,.12)"/>
      <rect x="24" y="28" width="140" height="92" rx="22" fill="#fff" opacity=".1"/>
      <path d="M63 51h70a10 10 0 0 1 10 10v58c-19-7-40-7-60 0-10-5-20-6-30 0V61a10 10 0 0 1 10-10Z" fill="#68e0cf" opacity=".94"/>
      <path d="M95 56v58" stroke="#07111d" stroke-opacity=".45" stroke-width="5" stroke-linecap="round"/>
      <rect x="24" y="150" width="126" height="14" rx="7" fill="#fff" opacity=".9"/>
      <rect x="24" y="176" width="130" height="10" rx="5" fill="#d5e2f0" opacity=".48"/>
      <rect x="24" y="200" width="74" height="24" rx="12" fill="#6d5cf6" opacity=".32"/>
    </g>
  </g>

  <g opacity=".78">
    <rect x="130" y="478" width="560" height="14" rx="7" fill="#fff" opacity=".1"/>
    <rect x="130" y="478" width="280" height="14" rx="7" fill="url(#accent)" opacity=".88"/>
  </g>
</svg>
