<svg xmlns="http://www.w3.org/2000/svg" viewBox="0 0 64 64">
  <defs><linearGradient id="g" x1="8" y1="6" x2="56" y2="58"><stop stop-color="#7c5cff"/><stop offset=".55" stop-color="#18a7ff"/><stop offset="1" stop-color="#68e0cf"/></linearGradient></defs>
  <rect width="64" height="64" rx="17" fill="#08111d"/>
  <path d="M14 20c11 4 25 4 36 0 3-1 5 1 5 4s-2 5-5 6c-5 1-10 2-15 2v14c0 3-2 5-5 5s-5-2-5-5V32c-5 0-10-1-15-2-3-1-5-3-5-6s3-5 5-4Z" fill="url(#g)"/>
  <path d="M14 38c10 3 26 4 36 0 2-1 5 1 5 4 0 2-2 4-4 4-4 2-9 2-14 3l7 6c1 1 1 3 0 4-1 2-4 2-5 1l-7-7-7 7c-2 1-4 1-5-1-1-1-1-3 0-4l7-6c-5-1-10-1-14-3-2 0-4-2-4-4 0-3 3-5 5-4Z" fill="url(#g)" opacity=".94"/>
</svg>
