<svg xmlns="http://www.w3.org/2000/svg" viewBox="0 0 128 128" role="img" aria-labelledby="title desc">
  <title id="title">Tadami mark</title>
  <desc id="desc">Generated Aurora torii-style T logo.</desc>
  <defs>
    <linearGradient id="g" x1="20" y1="15" x2="108" y2="116" gradientUnits="userSpaceOnUse">
      <stop offset="0" stop-color="#7c5cff"/>
      <stop offset=".52" stop-color="#18a7ff"/>
      <stop offset="1" stop-color="#68e0cf"/>
    </linearGradient>
    <filter id="soft" x="-30%" y="-30%" width="160%" height="160%">
      <feGaussianBlur in="SourceAlpha" stdDeviation="2"/>
      <feOffset dy="4"/>
      <feComposite in2="SourceAlpha" operator="out"/>
      <feColorMatrix values="0 0 0 0 0.04 0 0 0 0 0.12 0 0 0 0 0.22 0 0 0 .35 0"/>
      <feBlend in2="SourceGraphic" mode="normal"/>
    </filter>
  </defs>
  <rect width="128" height="128" rx="34" fill="#08111d"/>
  <path d="M27 37c23 8 52 8 74 0 4-1 8 2 8 7 0 5-3 9-8 10-10 3-20 5-31 5v30c0 6-4 10-10 10s-10-4-10-10V59c-11 0-22-2-32-5-5-1-8-5-8-10s5-9 9-7Z" fill="url(#g)" filter="url(#soft)"/>
  <path d="M28 74c20 7 52 8 72 0 4-2 8 1 8 6 0 4-3 7-7 9-9 3-18 4-27 5l13 12c2 2 2 6 0 8-2 3-6 3-9 1L64 101l-14 14c-3 2-7 2-9-1-2-2-2-6 0-8l13-12c-10-1-19-2-28-5-4-2-7-5-7-9 0-5 5-8 9-6Z" fill="url(#g)" opacity=".92"/>
  <path d="M42 78h44" stroke="#08111d" stroke-opacity=".66" stroke-width="8" stroke-linecap="round"/>
  <path d="M53 79v14M75 79v14" stroke="#08111d" stroke-opacity=".66" stroke-width="8" stroke-linecap="round"/>
</svg>
